<mxfile host="Electron" modified="2023-07-17T13:18:23.176Z" agent="Mozilla/5.0 (Windows NT 6.1; Win64; x64) AppleWebKit/537.36 (KHTML, like Gecko) draw.io/21.1.2 Chrome/106.0.5249.199 Electron/21.4.3 Safari/537.36" etag="i93K9EIkQger4hObqup6" version="21.1.2" type="device">
  <diagram name="ページ1" id="mtlcL68E5AI3Iho4TW-G">
    <mxGraphModel dx="1418" dy="775" grid="1" gridSize="10" guides="1" tooltips="1" connect="1" arrows="1" fold="1" page="1" pageScale="1" pageWidth="1169" pageHeight="827" math="0" shadow="0">
      <root>
        <mxCell id="0" />
        <mxCell id="1" parent="0" />
        <mxCell id="dZNwG31AfP6tHt8ibSog-1" value="" style="rounded=1;whiteSpace=wrap;html=1;arcSize=6;strokeColor=#56517e;fillColor=#D0CEE2;" vertex="1" parent="1">
          <mxGeometry x="361" width="880" height="520" as="geometry" />
        </mxCell>
        <mxCell id="dZNwG31AfP6tHt8ibSog-2" value="" style="rounded=0;whiteSpace=wrap;html=1;fillColor=none;strokeColor=none;" vertex="1" parent="1">
          <mxGeometry width="40" height="40" as="geometry" />
        </mxCell>
        <mxCell id="dZNwG31AfP6tHt8ibSog-3" value="" style="rounded=0;whiteSpace=wrap;html=1;fillColor=none;strokeColor=none;" vertex="1" parent="1">
          <mxGeometry x="1600" width="40" height="40" as="geometry" />
        </mxCell>
        <mxCell id="dZNwG31AfP6tHt8ibSog-4" value="" style="group" vertex="1" connectable="0" parent="1">
          <mxGeometry x="963.25" y="40" width="229.5" height="446.5" as="geometry" />
        </mxCell>
        <mxCell id="dZNwG31AfP6tHt8ibSog-5" value="" style="shape=parallelogram;perimeter=parallelogramPerimeter;whiteSpace=wrap;html=1;fixedSize=1;flipH=1;rotation=-90;" vertex="1" parent="dZNwG31AfP6tHt8ibSog-4">
          <mxGeometry x="-13.5" y="154.5" width="56" height="29" as="geometry" />
        </mxCell>
        <mxCell id="dZNwG31AfP6tHt8ibSog-6" value="" style="shape=parallelogram;perimeter=parallelogramPerimeter;whiteSpace=wrap;html=1;fixedSize=1;flipH=1;rotation=-90;" vertex="1" parent="dZNwG31AfP6tHt8ibSog-4">
          <mxGeometry x="-13.5" y="190" width="56" height="29" as="geometry" />
        </mxCell>
        <mxCell id="dZNwG31AfP6tHt8ibSog-7" value="" style="shape=parallelogram;perimeter=parallelogramPerimeter;whiteSpace=wrap;html=1;fixedSize=1;flipH=1;rotation=-90;" vertex="1" parent="dZNwG31AfP6tHt8ibSog-4">
          <mxGeometry x="-13.5" y="226" width="56" height="29" as="geometry" />
        </mxCell>
        <mxCell id="dZNwG31AfP6tHt8ibSog-8" value="" style="shape=parallelogram;perimeter=parallelogramPerimeter;whiteSpace=wrap;html=1;fixedSize=1;flipH=1;rotation=-90;" vertex="1" parent="dZNwG31AfP6tHt8ibSog-4">
          <mxGeometry x="-13.5" y="261.5" width="56" height="29" as="geometry" />
        </mxCell>
        <mxCell id="dZNwG31AfP6tHt8ibSog-9" value="" style="shape=parallelogram;perimeter=parallelogramPerimeter;whiteSpace=wrap;html=1;fixedSize=1;flipH=1;rotation=-90;" vertex="1" parent="dZNwG31AfP6tHt8ibSog-4">
          <mxGeometry x="-13.5" y="297" width="56" height="29" as="geometry" />
        </mxCell>
        <mxCell id="dZNwG31AfP6tHt8ibSog-10" value="" style="shape=parallelogram;perimeter=parallelogramPerimeter;whiteSpace=wrap;html=1;fixedSize=1;flipH=1;rotation=-90;" vertex="1" parent="dZNwG31AfP6tHt8ibSog-4">
          <mxGeometry x="-13.5" y="332.5" width="56" height="29" as="geometry" />
        </mxCell>
        <mxCell id="dZNwG31AfP6tHt8ibSog-11" value="" style="shape=parallelogram;perimeter=parallelogramPerimeter;whiteSpace=wrap;html=1;fixedSize=1;flipH=1;rotation=-90;" vertex="1" parent="dZNwG31AfP6tHt8ibSog-4">
          <mxGeometry x="-13.5" y="368.5" width="56" height="29" as="geometry" />
        </mxCell>
        <mxCell id="dZNwG31AfP6tHt8ibSog-12" value="" style="shape=parallelogram;perimeter=parallelogramPerimeter;whiteSpace=wrap;html=1;fixedSize=1;flipH=1;rotation=-90;" vertex="1" parent="dZNwG31AfP6tHt8ibSog-4">
          <mxGeometry x="-13.5" y="404" width="56" height="29" as="geometry" />
        </mxCell>
        <mxCell id="dZNwG31AfP6tHt8ibSog-13" value="" style="shape=parallelogram;perimeter=parallelogramPerimeter;whiteSpace=wrap;html=1;fixedSize=1;flipH=1;rotation=-90;" vertex="1" parent="dZNwG31AfP6tHt8ibSog-4">
          <mxGeometry x="15" y="134.5" width="56" height="29" as="geometry" />
        </mxCell>
        <mxCell id="dZNwG31AfP6tHt8ibSog-14" value="" style="shape=parallelogram;perimeter=parallelogramPerimeter;whiteSpace=wrap;html=1;fixedSize=1;flipH=1;rotation=-90;" vertex="1" parent="dZNwG31AfP6tHt8ibSog-4">
          <mxGeometry x="15" y="170" width="56" height="29" as="geometry" />
        </mxCell>
        <mxCell id="dZNwG31AfP6tHt8ibSog-15" value="" style="shape=parallelogram;perimeter=parallelogramPerimeter;whiteSpace=wrap;html=1;fixedSize=1;flipH=1;rotation=-90;" vertex="1" parent="dZNwG31AfP6tHt8ibSog-4">
          <mxGeometry x="15" y="206" width="56" height="29" as="geometry" />
        </mxCell>
        <mxCell id="dZNwG31AfP6tHt8ibSog-16" value="" style="shape=parallelogram;perimeter=parallelogramPerimeter;whiteSpace=wrap;html=1;fixedSize=1;flipH=1;rotation=-90;" vertex="1" parent="dZNwG31AfP6tHt8ibSog-4">
          <mxGeometry x="15" y="241.5" width="56" height="29" as="geometry" />
        </mxCell>
        <mxCell id="dZNwG31AfP6tHt8ibSog-17" value="" style="shape=parallelogram;perimeter=parallelogramPerimeter;whiteSpace=wrap;html=1;fixedSize=1;flipH=1;rotation=-90;" vertex="1" parent="dZNwG31AfP6tHt8ibSog-4">
          <mxGeometry x="15" y="277" width="56" height="29" as="geometry" />
        </mxCell>
        <mxCell id="dZNwG31AfP6tHt8ibSog-18" value="" style="shape=parallelogram;perimeter=parallelogramPerimeter;whiteSpace=wrap;html=1;fixedSize=1;flipH=1;rotation=-90;" vertex="1" parent="dZNwG31AfP6tHt8ibSog-4">
          <mxGeometry x="15" y="312.5" width="56" height="29" as="geometry" />
        </mxCell>
        <mxCell id="dZNwG31AfP6tHt8ibSog-19" value="" style="shape=parallelogram;perimeter=parallelogramPerimeter;whiteSpace=wrap;html=1;fixedSize=1;flipH=1;rotation=-90;" vertex="1" parent="dZNwG31AfP6tHt8ibSog-4">
          <mxGeometry x="15" y="348.5" width="56" height="29" as="geometry" />
        </mxCell>
        <mxCell id="dZNwG31AfP6tHt8ibSog-20" value="" style="shape=parallelogram;perimeter=parallelogramPerimeter;whiteSpace=wrap;html=1;fixedSize=1;flipH=1;rotation=-90;" vertex="1" parent="dZNwG31AfP6tHt8ibSog-4">
          <mxGeometry x="15" y="384" width="56" height="29" as="geometry" />
        </mxCell>
        <mxCell id="dZNwG31AfP6tHt8ibSog-21" value="" style="shape=parallelogram;perimeter=parallelogramPerimeter;whiteSpace=wrap;html=1;fixedSize=1;flipH=1;rotation=-90;" vertex="1" parent="dZNwG31AfP6tHt8ibSog-4">
          <mxGeometry x="44" y="114" width="56" height="29" as="geometry" />
        </mxCell>
        <mxCell id="dZNwG31AfP6tHt8ibSog-22" value="" style="shape=parallelogram;perimeter=parallelogramPerimeter;whiteSpace=wrap;html=1;fixedSize=1;flipH=1;rotation=-90;" vertex="1" parent="dZNwG31AfP6tHt8ibSog-4">
          <mxGeometry x="44" y="149.5" width="56" height="29" as="geometry" />
        </mxCell>
        <mxCell id="dZNwG31AfP6tHt8ibSog-23" value="" style="shape=parallelogram;perimeter=parallelogramPerimeter;whiteSpace=wrap;html=1;fixedSize=1;flipH=1;rotation=-90;fillColor=#f5f5f5;strokeColor=#666666;fontColor=#333333;" vertex="1" parent="dZNwG31AfP6tHt8ibSog-4">
          <mxGeometry x="44" y="185.5" width="56" height="29" as="geometry" />
        </mxCell>
        <mxCell id="dZNwG31AfP6tHt8ibSog-24" value="" style="shape=parallelogram;perimeter=parallelogramPerimeter;whiteSpace=wrap;html=1;fixedSize=1;flipH=1;rotation=-90;" vertex="1" parent="dZNwG31AfP6tHt8ibSog-4">
          <mxGeometry x="44" y="221" width="56" height="29" as="geometry" />
        </mxCell>
        <mxCell id="dZNwG31AfP6tHt8ibSog-25" value="" style="shape=parallelogram;perimeter=parallelogramPerimeter;whiteSpace=wrap;html=1;fixedSize=1;flipH=1;rotation=-90;" vertex="1" parent="dZNwG31AfP6tHt8ibSog-4">
          <mxGeometry x="44" y="256.5" width="56" height="29" as="geometry" />
        </mxCell>
        <mxCell id="dZNwG31AfP6tHt8ibSog-26" value="" style="shape=parallelogram;perimeter=parallelogramPerimeter;whiteSpace=wrap;html=1;fixedSize=1;flipH=1;rotation=-90;" vertex="1" parent="dZNwG31AfP6tHt8ibSog-4">
          <mxGeometry x="44" y="292" width="56" height="29" as="geometry" />
        </mxCell>
        <mxCell id="dZNwG31AfP6tHt8ibSog-27" value="" style="shape=parallelogram;perimeter=parallelogramPerimeter;whiteSpace=wrap;html=1;fixedSize=1;flipH=1;rotation=-90;" vertex="1" parent="dZNwG31AfP6tHt8ibSog-4">
          <mxGeometry x="44" y="328" width="56" height="29" as="geometry" />
        </mxCell>
        <mxCell id="dZNwG31AfP6tHt8ibSog-28" value="" style="shape=parallelogram;perimeter=parallelogramPerimeter;whiteSpace=wrap;html=1;fixedSize=1;flipH=1;rotation=-90;" vertex="1" parent="dZNwG31AfP6tHt8ibSog-4">
          <mxGeometry x="44" y="363.5" width="56" height="29" as="geometry" />
        </mxCell>
        <mxCell id="dZNwG31AfP6tHt8ibSog-29" value="" style="shape=parallelogram;perimeter=parallelogramPerimeter;whiteSpace=wrap;html=1;fixedSize=1;flipH=1;rotation=-90;" vertex="1" parent="dZNwG31AfP6tHt8ibSog-4">
          <mxGeometry x="72.5" y="94" width="56" height="29" as="geometry" />
        </mxCell>
        <mxCell id="dZNwG31AfP6tHt8ibSog-30" value="" style="shape=parallelogram;perimeter=parallelogramPerimeter;whiteSpace=wrap;html=1;fixedSize=1;flipH=1;rotation=-90;" vertex="1" parent="dZNwG31AfP6tHt8ibSog-4">
          <mxGeometry x="72.5" y="129.5" width="56" height="29" as="geometry" />
        </mxCell>
        <mxCell id="dZNwG31AfP6tHt8ibSog-31" value="" style="shape=parallelogram;perimeter=parallelogramPerimeter;whiteSpace=wrap;html=1;fixedSize=1;flipH=1;rotation=-90;" vertex="1" parent="dZNwG31AfP6tHt8ibSog-4">
          <mxGeometry x="72.5" y="165.5" width="56" height="29" as="geometry" />
        </mxCell>
        <mxCell id="dZNwG31AfP6tHt8ibSog-32" value="" style="shape=parallelogram;perimeter=parallelogramPerimeter;whiteSpace=wrap;html=1;fixedSize=1;flipH=1;rotation=-90;" vertex="1" parent="dZNwG31AfP6tHt8ibSog-4">
          <mxGeometry x="72.5" y="201" width="56" height="29" as="geometry" />
        </mxCell>
        <mxCell id="dZNwG31AfP6tHt8ibSog-33" value="" style="shape=parallelogram;perimeter=parallelogramPerimeter;whiteSpace=wrap;html=1;fixedSize=1;flipH=1;rotation=-90;" vertex="1" parent="dZNwG31AfP6tHt8ibSog-4">
          <mxGeometry x="72.5" y="236.5" width="56" height="29" as="geometry" />
        </mxCell>
        <mxCell id="dZNwG31AfP6tHt8ibSog-34" value="" style="shape=parallelogram;perimeter=parallelogramPerimeter;whiteSpace=wrap;html=1;fixedSize=1;flipH=1;rotation=-90;" vertex="1" parent="dZNwG31AfP6tHt8ibSog-4">
          <mxGeometry x="72.5" y="272" width="56" height="29" as="geometry" />
        </mxCell>
        <mxCell id="dZNwG31AfP6tHt8ibSog-35" value="" style="shape=parallelogram;perimeter=parallelogramPerimeter;whiteSpace=wrap;html=1;fixedSize=1;flipH=1;rotation=-90;" vertex="1" parent="dZNwG31AfP6tHt8ibSog-4">
          <mxGeometry x="72.5" y="308" width="56" height="29" as="geometry" />
        </mxCell>
        <mxCell id="dZNwG31AfP6tHt8ibSog-36" value="" style="shape=parallelogram;perimeter=parallelogramPerimeter;whiteSpace=wrap;html=1;fixedSize=1;flipH=1;rotation=-90;" vertex="1" parent="dZNwG31AfP6tHt8ibSog-4">
          <mxGeometry x="72.5" y="343.5" width="56" height="29" as="geometry" />
        </mxCell>
        <mxCell id="dZNwG31AfP6tHt8ibSog-37" value="" style="shape=parallelogram;perimeter=parallelogramPerimeter;whiteSpace=wrap;html=1;fixedSize=1;flipH=1;rotation=-90;" vertex="1" parent="dZNwG31AfP6tHt8ibSog-4">
          <mxGeometry x="101" y="74" width="56" height="29" as="geometry" />
        </mxCell>
        <mxCell id="dZNwG31AfP6tHt8ibSog-38" value="" style="shape=parallelogram;perimeter=parallelogramPerimeter;whiteSpace=wrap;html=1;fixedSize=1;flipH=1;rotation=-90;" vertex="1" parent="dZNwG31AfP6tHt8ibSog-4">
          <mxGeometry x="101" y="109.5" width="56" height="29" as="geometry" />
        </mxCell>
        <mxCell id="dZNwG31AfP6tHt8ibSog-39" value="" style="shape=parallelogram;perimeter=parallelogramPerimeter;whiteSpace=wrap;html=1;fixedSize=1;flipH=1;rotation=-90;" vertex="1" parent="dZNwG31AfP6tHt8ibSog-4">
          <mxGeometry x="101" y="145.5" width="56" height="29" as="geometry" />
        </mxCell>
        <mxCell id="dZNwG31AfP6tHt8ibSog-40" value="" style="shape=parallelogram;perimeter=parallelogramPerimeter;whiteSpace=wrap;html=1;fixedSize=1;flipH=1;rotation=-90;" vertex="1" parent="dZNwG31AfP6tHt8ibSog-4">
          <mxGeometry x="101" y="181" width="56" height="29" as="geometry" />
        </mxCell>
        <mxCell id="dZNwG31AfP6tHt8ibSog-41" value="" style="shape=parallelogram;perimeter=parallelogramPerimeter;whiteSpace=wrap;html=1;fixedSize=1;flipH=1;rotation=-90;" vertex="1" parent="dZNwG31AfP6tHt8ibSog-4">
          <mxGeometry x="101" y="216.5" width="56" height="29" as="geometry" />
        </mxCell>
        <mxCell id="dZNwG31AfP6tHt8ibSog-42" value="" style="shape=parallelogram;perimeter=parallelogramPerimeter;whiteSpace=wrap;html=1;fixedSize=1;flipH=1;rotation=-90;" vertex="1" parent="dZNwG31AfP6tHt8ibSog-4">
          <mxGeometry x="101" y="252" width="56" height="29" as="geometry" />
        </mxCell>
        <mxCell id="dZNwG31AfP6tHt8ibSog-43" value="" style="shape=parallelogram;perimeter=parallelogramPerimeter;whiteSpace=wrap;html=1;fixedSize=1;flipH=1;rotation=-90;" vertex="1" parent="dZNwG31AfP6tHt8ibSog-4">
          <mxGeometry x="101" y="288" width="56" height="29" as="geometry" />
        </mxCell>
        <mxCell id="dZNwG31AfP6tHt8ibSog-44" value="" style="shape=parallelogram;perimeter=parallelogramPerimeter;whiteSpace=wrap;html=1;fixedSize=1;flipH=1;rotation=-90;" vertex="1" parent="dZNwG31AfP6tHt8ibSog-4">
          <mxGeometry x="101" y="323.5" width="56" height="29" as="geometry" />
        </mxCell>
        <mxCell id="dZNwG31AfP6tHt8ibSog-45" value="" style="shape=parallelogram;perimeter=parallelogramPerimeter;whiteSpace=wrap;html=1;fixedSize=1;flipH=1;rotation=-90;" vertex="1" parent="dZNwG31AfP6tHt8ibSog-4">
          <mxGeometry x="129.5" y="54" width="56" height="29" as="geometry" />
        </mxCell>
        <mxCell id="dZNwG31AfP6tHt8ibSog-46" value="" style="shape=parallelogram;perimeter=parallelogramPerimeter;whiteSpace=wrap;html=1;fixedSize=1;flipH=1;rotation=-90;" vertex="1" parent="dZNwG31AfP6tHt8ibSog-4">
          <mxGeometry x="129.5" y="89.5" width="56" height="29" as="geometry" />
        </mxCell>
        <mxCell id="dZNwG31AfP6tHt8ibSog-47" value="" style="shape=parallelogram;perimeter=parallelogramPerimeter;whiteSpace=wrap;html=1;fixedSize=1;flipH=1;rotation=-90;fillColor=#f8cecc;strokeColor=#b85450;" vertex="1" parent="dZNwG31AfP6tHt8ibSog-4">
          <mxGeometry x="129.5" y="125.5" width="56" height="29" as="geometry" />
        </mxCell>
        <mxCell id="dZNwG31AfP6tHt8ibSog-48" value="" style="shape=parallelogram;perimeter=parallelogramPerimeter;whiteSpace=wrap;html=1;fixedSize=1;flipH=1;rotation=-90;" vertex="1" parent="dZNwG31AfP6tHt8ibSog-4">
          <mxGeometry x="129.5" y="161" width="56" height="29" as="geometry" />
        </mxCell>
        <mxCell id="dZNwG31AfP6tHt8ibSog-49" value="" style="shape=parallelogram;perimeter=parallelogramPerimeter;whiteSpace=wrap;html=1;fixedSize=1;flipH=1;rotation=-90;" vertex="1" parent="dZNwG31AfP6tHt8ibSog-4">
          <mxGeometry x="129.5" y="196.5" width="56" height="29" as="geometry" />
        </mxCell>
        <mxCell id="dZNwG31AfP6tHt8ibSog-50" value="" style="shape=parallelogram;perimeter=parallelogramPerimeter;whiteSpace=wrap;html=1;fixedSize=1;flipH=1;rotation=-90;" vertex="1" parent="dZNwG31AfP6tHt8ibSog-4">
          <mxGeometry x="129.5" y="232" width="56" height="29" as="geometry" />
        </mxCell>
        <mxCell id="dZNwG31AfP6tHt8ibSog-51" value="" style="shape=parallelogram;perimeter=parallelogramPerimeter;whiteSpace=wrap;html=1;fixedSize=1;flipH=1;rotation=-90;" vertex="1" parent="dZNwG31AfP6tHt8ibSog-4">
          <mxGeometry x="129.5" y="268" width="56" height="29" as="geometry" />
        </mxCell>
        <mxCell id="dZNwG31AfP6tHt8ibSog-52" value="" style="shape=parallelogram;perimeter=parallelogramPerimeter;whiteSpace=wrap;html=1;fixedSize=1;flipH=1;rotation=-90;" vertex="1" parent="dZNwG31AfP6tHt8ibSog-4">
          <mxGeometry x="129.5" y="303.5" width="56" height="29" as="geometry" />
        </mxCell>
        <mxCell id="dZNwG31AfP6tHt8ibSog-53" value="" style="shape=parallelogram;perimeter=parallelogramPerimeter;whiteSpace=wrap;html=1;fixedSize=1;flipH=1;rotation=-90;" vertex="1" parent="dZNwG31AfP6tHt8ibSog-4">
          <mxGeometry x="158.5" y="33.5" width="56" height="29" as="geometry" />
        </mxCell>
        <mxCell id="dZNwG31AfP6tHt8ibSog-54" value="" style="shape=parallelogram;perimeter=parallelogramPerimeter;whiteSpace=wrap;html=1;fixedSize=1;flipH=1;rotation=-90;" vertex="1" parent="dZNwG31AfP6tHt8ibSog-4">
          <mxGeometry x="158.5" y="69" width="56" height="29" as="geometry" />
        </mxCell>
        <mxCell id="dZNwG31AfP6tHt8ibSog-55" value="" style="shape=parallelogram;perimeter=parallelogramPerimeter;whiteSpace=wrap;html=1;fixedSize=1;flipH=1;rotation=-90;" vertex="1" parent="dZNwG31AfP6tHt8ibSog-4">
          <mxGeometry x="158.5" y="105" width="56" height="29" as="geometry" />
        </mxCell>
        <mxCell id="dZNwG31AfP6tHt8ibSog-56" value="" style="shape=parallelogram;perimeter=parallelogramPerimeter;whiteSpace=wrap;html=1;fixedSize=1;flipH=1;rotation=-90;" vertex="1" parent="dZNwG31AfP6tHt8ibSog-4">
          <mxGeometry x="158.5" y="140.5" width="56" height="29" as="geometry" />
        </mxCell>
        <mxCell id="dZNwG31AfP6tHt8ibSog-57" value="" style="shape=parallelogram;perimeter=parallelogramPerimeter;whiteSpace=wrap;html=1;fixedSize=1;flipH=1;rotation=-90;" vertex="1" parent="dZNwG31AfP6tHt8ibSog-4">
          <mxGeometry x="158.5" y="176" width="56" height="29" as="geometry" />
        </mxCell>
        <mxCell id="dZNwG31AfP6tHt8ibSog-58" value="" style="shape=parallelogram;perimeter=parallelogramPerimeter;whiteSpace=wrap;html=1;fixedSize=1;flipH=1;rotation=-90;" vertex="1" parent="dZNwG31AfP6tHt8ibSog-4">
          <mxGeometry x="158.5" y="211.5" width="56" height="29" as="geometry" />
        </mxCell>
        <mxCell id="dZNwG31AfP6tHt8ibSog-59" value="" style="shape=parallelogram;perimeter=parallelogramPerimeter;whiteSpace=wrap;html=1;fixedSize=1;flipH=1;rotation=-90;" vertex="1" parent="dZNwG31AfP6tHt8ibSog-4">
          <mxGeometry x="158.5" y="247.5" width="56" height="29" as="geometry" />
        </mxCell>
        <mxCell id="dZNwG31AfP6tHt8ibSog-60" value="" style="shape=parallelogram;perimeter=parallelogramPerimeter;whiteSpace=wrap;html=1;fixedSize=1;flipH=1;rotation=-90;" vertex="1" parent="dZNwG31AfP6tHt8ibSog-4">
          <mxGeometry x="158.5" y="283" width="56" height="29" as="geometry" />
        </mxCell>
        <mxCell id="dZNwG31AfP6tHt8ibSog-61" value="" style="shape=parallelogram;perimeter=parallelogramPerimeter;whiteSpace=wrap;html=1;fixedSize=1;flipH=1;rotation=-90;" vertex="1" parent="dZNwG31AfP6tHt8ibSog-4">
          <mxGeometry x="187" y="13.5" width="56" height="29" as="geometry" />
        </mxCell>
        <mxCell id="dZNwG31AfP6tHt8ibSog-62" value="" style="shape=parallelogram;perimeter=parallelogramPerimeter;whiteSpace=wrap;html=1;fixedSize=1;flipH=1;rotation=-90;" vertex="1" parent="dZNwG31AfP6tHt8ibSog-4">
          <mxGeometry x="187" y="49" width="56" height="29" as="geometry" />
        </mxCell>
        <mxCell id="dZNwG31AfP6tHt8ibSog-63" value="" style="shape=parallelogram;perimeter=parallelogramPerimeter;whiteSpace=wrap;html=1;fixedSize=1;flipH=1;rotation=-90;" vertex="1" parent="dZNwG31AfP6tHt8ibSog-4">
          <mxGeometry x="187" y="85" width="56" height="29" as="geometry" />
        </mxCell>
        <mxCell id="dZNwG31AfP6tHt8ibSog-64" value="" style="shape=parallelogram;perimeter=parallelogramPerimeter;whiteSpace=wrap;html=1;fixedSize=1;flipH=1;rotation=-90;" vertex="1" parent="dZNwG31AfP6tHt8ibSog-4">
          <mxGeometry x="187" y="120.5" width="56" height="29" as="geometry" />
        </mxCell>
        <mxCell id="dZNwG31AfP6tHt8ibSog-65" value="" style="shape=parallelogram;perimeter=parallelogramPerimeter;whiteSpace=wrap;html=1;fixedSize=1;flipH=1;rotation=-90;" vertex="1" parent="dZNwG31AfP6tHt8ibSog-4">
          <mxGeometry x="187" y="156" width="56" height="29" as="geometry" />
        </mxCell>
        <mxCell id="dZNwG31AfP6tHt8ibSog-66" value="" style="shape=parallelogram;perimeter=parallelogramPerimeter;whiteSpace=wrap;html=1;fixedSize=1;flipH=1;rotation=-90;" vertex="1" parent="dZNwG31AfP6tHt8ibSog-4">
          <mxGeometry x="187" y="191.5" width="56" height="29" as="geometry" />
        </mxCell>
        <mxCell id="dZNwG31AfP6tHt8ibSog-67" value="" style="shape=parallelogram;perimeter=parallelogramPerimeter;whiteSpace=wrap;html=1;fixedSize=1;flipH=1;rotation=-90;" vertex="1" parent="dZNwG31AfP6tHt8ibSog-4">
          <mxGeometry x="187" y="227.5" width="56" height="29" as="geometry" />
        </mxCell>
        <mxCell id="dZNwG31AfP6tHt8ibSog-68" value="" style="shape=parallelogram;perimeter=parallelogramPerimeter;whiteSpace=wrap;html=1;fixedSize=1;flipH=1;rotation=-90;" vertex="1" parent="dZNwG31AfP6tHt8ibSog-4">
          <mxGeometry x="187" y="263" width="56" height="29" as="geometry" />
        </mxCell>
        <mxCell id="dZNwG31AfP6tHt8ibSog-69" value="&lt;span style=&quot;font-size: 18px;&quot;&gt;Destination&lt;/span&gt;" style="rounded=0;whiteSpace=wrap;html=1;fontStyle=1;fontSize=18;strokeColor=none;fillColor=none;" vertex="1" parent="dZNwG31AfP6tHt8ibSog-4">
          <mxGeometry x="40.5" width="120" height="40" as="geometry" />
        </mxCell>
        <mxCell id="dZNwG31AfP6tHt8ibSog-70" value="" style="group" vertex="1" connectable="0" parent="1">
          <mxGeometry x="403.25" y="40" width="229.5" height="446.5" as="geometry" />
        </mxCell>
        <mxCell id="dZNwG31AfP6tHt8ibSog-71" value="" style="shape=parallelogram;perimeter=parallelogramPerimeter;whiteSpace=wrap;html=1;fixedSize=1;flipH=1;rotation=-90;" vertex="1" parent="dZNwG31AfP6tHt8ibSog-70">
          <mxGeometry x="-13.5" y="154.5" width="56" height="29" as="geometry" />
        </mxCell>
        <mxCell id="dZNwG31AfP6tHt8ibSog-72" value="" style="shape=parallelogram;perimeter=parallelogramPerimeter;whiteSpace=wrap;html=1;fixedSize=1;flipH=1;rotation=-90;" vertex="1" parent="dZNwG31AfP6tHt8ibSog-70">
          <mxGeometry x="-13.5" y="190" width="56" height="29" as="geometry" />
        </mxCell>
        <mxCell id="dZNwG31AfP6tHt8ibSog-73" value="" style="shape=parallelogram;perimeter=parallelogramPerimeter;whiteSpace=wrap;html=1;fixedSize=1;flipH=1;rotation=-90;" vertex="1" parent="dZNwG31AfP6tHt8ibSog-70">
          <mxGeometry x="-13.5" y="226" width="56" height="29" as="geometry" />
        </mxCell>
        <mxCell id="dZNwG31AfP6tHt8ibSog-74" value="" style="shape=parallelogram;perimeter=parallelogramPerimeter;whiteSpace=wrap;html=1;fixedSize=1;flipH=1;rotation=-90;" vertex="1" parent="dZNwG31AfP6tHt8ibSog-70">
          <mxGeometry x="-13.5" y="261.5" width="56" height="29" as="geometry" />
        </mxCell>
        <mxCell id="dZNwG31AfP6tHt8ibSog-75" value="" style="shape=parallelogram;perimeter=parallelogramPerimeter;whiteSpace=wrap;html=1;fixedSize=1;flipH=1;rotation=-90;" vertex="1" parent="dZNwG31AfP6tHt8ibSog-70">
          <mxGeometry x="-13.5" y="297" width="56" height="29" as="geometry" />
        </mxCell>
        <mxCell id="dZNwG31AfP6tHt8ibSog-76" value="" style="shape=parallelogram;perimeter=parallelogramPerimeter;whiteSpace=wrap;html=1;fixedSize=1;flipH=1;rotation=-90;" vertex="1" parent="dZNwG31AfP6tHt8ibSog-70">
          <mxGeometry x="-13.5" y="332.5" width="56" height="29" as="geometry" />
        </mxCell>
        <mxCell id="dZNwG31AfP6tHt8ibSog-77" value="" style="shape=parallelogram;perimeter=parallelogramPerimeter;whiteSpace=wrap;html=1;fixedSize=1;flipH=1;rotation=-90;" vertex="1" parent="dZNwG31AfP6tHt8ibSog-70">
          <mxGeometry x="-13.5" y="368.5" width="56" height="29" as="geometry" />
        </mxCell>
        <mxCell id="dZNwG31AfP6tHt8ibSog-78" value="" style="shape=parallelogram;perimeter=parallelogramPerimeter;whiteSpace=wrap;html=1;fixedSize=1;flipH=1;rotation=-90;" vertex="1" parent="dZNwG31AfP6tHt8ibSog-70">
          <mxGeometry x="-13.5" y="404" width="56" height="29" as="geometry" />
        </mxCell>
        <mxCell id="dZNwG31AfP6tHt8ibSog-79" value="" style="shape=parallelogram;perimeter=parallelogramPerimeter;whiteSpace=wrap;html=1;fixedSize=1;flipH=1;rotation=-90;" vertex="1" parent="dZNwG31AfP6tHt8ibSog-70">
          <mxGeometry x="15" y="134.5" width="56" height="29" as="geometry" />
        </mxCell>
        <mxCell id="dZNwG31AfP6tHt8ibSog-80" value="" style="shape=parallelogram;perimeter=parallelogramPerimeter;whiteSpace=wrap;html=1;fixedSize=1;flipH=1;rotation=-90;" vertex="1" parent="dZNwG31AfP6tHt8ibSog-70">
          <mxGeometry x="15" y="170" width="56" height="29" as="geometry" />
        </mxCell>
        <mxCell id="dZNwG31AfP6tHt8ibSog-81" value="" style="shape=parallelogram;perimeter=parallelogramPerimeter;whiteSpace=wrap;html=1;fixedSize=1;flipH=1;rotation=-90;" vertex="1" parent="dZNwG31AfP6tHt8ibSog-70">
          <mxGeometry x="15" y="206" width="56" height="29" as="geometry" />
        </mxCell>
        <mxCell id="dZNwG31AfP6tHt8ibSog-82" value="" style="shape=parallelogram;perimeter=parallelogramPerimeter;whiteSpace=wrap;html=1;fixedSize=1;flipH=1;rotation=-90;" vertex="1" parent="dZNwG31AfP6tHt8ibSog-70">
          <mxGeometry x="15" y="241.5" width="56" height="29" as="geometry" />
        </mxCell>
        <mxCell id="dZNwG31AfP6tHt8ibSog-83" value="" style="shape=parallelogram;perimeter=parallelogramPerimeter;whiteSpace=wrap;html=1;fixedSize=1;flipH=1;rotation=-90;" vertex="1" parent="dZNwG31AfP6tHt8ibSog-70">
          <mxGeometry x="15" y="277" width="56" height="29" as="geometry" />
        </mxCell>
        <mxCell id="dZNwG31AfP6tHt8ibSog-84" value="" style="shape=parallelogram;perimeter=parallelogramPerimeter;whiteSpace=wrap;html=1;fixedSize=1;flipH=1;rotation=-90;" vertex="1" parent="dZNwG31AfP6tHt8ibSog-70">
          <mxGeometry x="15" y="312.5" width="56" height="29" as="geometry" />
        </mxCell>
        <mxCell id="dZNwG31AfP6tHt8ibSog-85" value="" style="shape=parallelogram;perimeter=parallelogramPerimeter;whiteSpace=wrap;html=1;fixedSize=1;flipH=1;rotation=-90;" vertex="1" parent="dZNwG31AfP6tHt8ibSog-70">
          <mxGeometry x="15" y="348.5" width="56" height="29" as="geometry" />
        </mxCell>
        <mxCell id="dZNwG31AfP6tHt8ibSog-86" value="" style="shape=parallelogram;perimeter=parallelogramPerimeter;whiteSpace=wrap;html=1;fixedSize=1;flipH=1;rotation=-90;" vertex="1" parent="dZNwG31AfP6tHt8ibSog-70">
          <mxGeometry x="15" y="384" width="56" height="29" as="geometry" />
        </mxCell>
        <mxCell id="dZNwG31AfP6tHt8ibSog-87" value="" style="shape=parallelogram;perimeter=parallelogramPerimeter;whiteSpace=wrap;html=1;fixedSize=1;flipH=1;rotation=-90;" vertex="1" parent="dZNwG31AfP6tHt8ibSog-70">
          <mxGeometry x="44" y="114" width="56" height="29" as="geometry" />
        </mxCell>
        <mxCell id="dZNwG31AfP6tHt8ibSog-88" value="" style="shape=parallelogram;perimeter=parallelogramPerimeter;whiteSpace=wrap;html=1;fixedSize=1;flipH=1;rotation=-90;" vertex="1" parent="dZNwG31AfP6tHt8ibSog-70">
          <mxGeometry x="44" y="149.5" width="56" height="29" as="geometry" />
        </mxCell>
        <mxCell id="dZNwG31AfP6tHt8ibSog-89" value="" style="shape=parallelogram;perimeter=parallelogramPerimeter;whiteSpace=wrap;html=1;fixedSize=1;flipH=1;rotation=-90;fillColor=#d5e8d4;strokeColor=#82b366;" vertex="1" parent="dZNwG31AfP6tHt8ibSog-70">
          <mxGeometry x="44" y="185.5" width="56" height="29" as="geometry" />
        </mxCell>
        <mxCell id="dZNwG31AfP6tHt8ibSog-90" value="" style="shape=parallelogram;perimeter=parallelogramPerimeter;whiteSpace=wrap;html=1;fixedSize=1;flipH=1;rotation=-90;" vertex="1" parent="dZNwG31AfP6tHt8ibSog-70">
          <mxGeometry x="44" y="221" width="56" height="29" as="geometry" />
        </mxCell>
        <mxCell id="dZNwG31AfP6tHt8ibSog-91" value="" style="shape=parallelogram;perimeter=parallelogramPerimeter;whiteSpace=wrap;html=1;fixedSize=1;flipH=1;rotation=-90;" vertex="1" parent="dZNwG31AfP6tHt8ibSog-70">
          <mxGeometry x="44" y="256.5" width="56" height="29" as="geometry" />
        </mxCell>
        <mxCell id="dZNwG31AfP6tHt8ibSog-92" value="" style="shape=parallelogram;perimeter=parallelogramPerimeter;whiteSpace=wrap;html=1;fixedSize=1;flipH=1;rotation=-90;" vertex="1" parent="dZNwG31AfP6tHt8ibSog-70">
          <mxGeometry x="44" y="292" width="56" height="29" as="geometry" />
        </mxCell>
        <mxCell id="dZNwG31AfP6tHt8ibSog-93" value="" style="shape=parallelogram;perimeter=parallelogramPerimeter;whiteSpace=wrap;html=1;fixedSize=1;flipH=1;rotation=-90;" vertex="1" parent="dZNwG31AfP6tHt8ibSog-70">
          <mxGeometry x="44" y="328" width="56" height="29" as="geometry" />
        </mxCell>
        <mxCell id="dZNwG31AfP6tHt8ibSog-94" value="" style="shape=parallelogram;perimeter=parallelogramPerimeter;whiteSpace=wrap;html=1;fixedSize=1;flipH=1;rotation=-90;" vertex="1" parent="dZNwG31AfP6tHt8ibSog-70">
          <mxGeometry x="44" y="363.5" width="56" height="29" as="geometry" />
        </mxCell>
        <mxCell id="dZNwG31AfP6tHt8ibSog-95" value="" style="shape=parallelogram;perimeter=parallelogramPerimeter;whiteSpace=wrap;html=1;fixedSize=1;flipH=1;rotation=-90;" vertex="1" parent="dZNwG31AfP6tHt8ibSog-70">
          <mxGeometry x="72.5" y="94" width="56" height="29" as="geometry" />
        </mxCell>
        <mxCell id="dZNwG31AfP6tHt8ibSog-96" value="" style="shape=parallelogram;perimeter=parallelogramPerimeter;whiteSpace=wrap;html=1;fixedSize=1;flipH=1;rotation=-90;" vertex="1" parent="dZNwG31AfP6tHt8ibSog-70">
          <mxGeometry x="72.5" y="129.5" width="56" height="29" as="geometry" />
        </mxCell>
        <mxCell id="dZNwG31AfP6tHt8ibSog-97" value="" style="shape=parallelogram;perimeter=parallelogramPerimeter;whiteSpace=wrap;html=1;fixedSize=1;flipH=1;rotation=-90;" vertex="1" parent="dZNwG31AfP6tHt8ibSog-70">
          <mxGeometry x="72.5" y="165.5" width="56" height="29" as="geometry" />
        </mxCell>
        <mxCell id="dZNwG31AfP6tHt8ibSog-98" value="" style="shape=parallelogram;perimeter=parallelogramPerimeter;whiteSpace=wrap;html=1;fixedSize=1;flipH=1;rotation=-90;" vertex="1" parent="dZNwG31AfP6tHt8ibSog-70">
          <mxGeometry x="72.5" y="201" width="56" height="29" as="geometry" />
        </mxCell>
        <mxCell id="dZNwG31AfP6tHt8ibSog-99" value="" style="shape=parallelogram;perimeter=parallelogramPerimeter;whiteSpace=wrap;html=1;fixedSize=1;flipH=1;rotation=-90;" vertex="1" parent="dZNwG31AfP6tHt8ibSog-70">
          <mxGeometry x="72.5" y="236.5" width="56" height="29" as="geometry" />
        </mxCell>
        <mxCell id="dZNwG31AfP6tHt8ibSog-100" value="" style="shape=parallelogram;perimeter=parallelogramPerimeter;whiteSpace=wrap;html=1;fixedSize=1;flipH=1;rotation=-90;" vertex="1" parent="dZNwG31AfP6tHt8ibSog-70">
          <mxGeometry x="72.5" y="272" width="56" height="29" as="geometry" />
        </mxCell>
        <mxCell id="dZNwG31AfP6tHt8ibSog-101" value="" style="shape=parallelogram;perimeter=parallelogramPerimeter;whiteSpace=wrap;html=1;fixedSize=1;flipH=1;rotation=-90;" vertex="1" parent="dZNwG31AfP6tHt8ibSog-70">
          <mxGeometry x="72.5" y="308" width="56" height="29" as="geometry" />
        </mxCell>
        <mxCell id="dZNwG31AfP6tHt8ibSog-102" value="" style="shape=parallelogram;perimeter=parallelogramPerimeter;whiteSpace=wrap;html=1;fixedSize=1;flipH=1;rotation=-90;" vertex="1" parent="dZNwG31AfP6tHt8ibSog-70">
          <mxGeometry x="72.5" y="343.5" width="56" height="29" as="geometry" />
        </mxCell>
        <mxCell id="dZNwG31AfP6tHt8ibSog-103" value="" style="shape=parallelogram;perimeter=parallelogramPerimeter;whiteSpace=wrap;html=1;fixedSize=1;flipH=1;rotation=-90;" vertex="1" parent="dZNwG31AfP6tHt8ibSog-70">
          <mxGeometry x="101" y="74" width="56" height="29" as="geometry" />
        </mxCell>
        <mxCell id="dZNwG31AfP6tHt8ibSog-104" value="" style="shape=parallelogram;perimeter=parallelogramPerimeter;whiteSpace=wrap;html=1;fixedSize=1;flipH=1;rotation=-90;" vertex="1" parent="dZNwG31AfP6tHt8ibSog-70">
          <mxGeometry x="101" y="109.5" width="56" height="29" as="geometry" />
        </mxCell>
        <mxCell id="dZNwG31AfP6tHt8ibSog-105" value="" style="shape=parallelogram;perimeter=parallelogramPerimeter;whiteSpace=wrap;html=1;fixedSize=1;flipH=1;rotation=-90;" vertex="1" parent="dZNwG31AfP6tHt8ibSog-70">
          <mxGeometry x="101" y="145.5" width="56" height="29" as="geometry" />
        </mxCell>
        <mxCell id="dZNwG31AfP6tHt8ibSog-106" value="" style="shape=parallelogram;perimeter=parallelogramPerimeter;whiteSpace=wrap;html=1;fixedSize=1;flipH=1;rotation=-90;" vertex="1" parent="dZNwG31AfP6tHt8ibSog-70">
          <mxGeometry x="101" y="181" width="56" height="29" as="geometry" />
        </mxCell>
        <mxCell id="dZNwG31AfP6tHt8ibSog-107" value="" style="shape=parallelogram;perimeter=parallelogramPerimeter;whiteSpace=wrap;html=1;fixedSize=1;flipH=1;rotation=-90;" vertex="1" parent="dZNwG31AfP6tHt8ibSog-70">
          <mxGeometry x="101" y="216.5" width="56" height="29" as="geometry" />
        </mxCell>
        <mxCell id="dZNwG31AfP6tHt8ibSog-108" value="" style="shape=parallelogram;perimeter=parallelogramPerimeter;whiteSpace=wrap;html=1;fixedSize=1;flipH=1;rotation=-90;" vertex="1" parent="dZNwG31AfP6tHt8ibSog-70">
          <mxGeometry x="101" y="252" width="56" height="29" as="geometry" />
        </mxCell>
        <mxCell id="dZNwG31AfP6tHt8ibSog-109" value="" style="shape=parallelogram;perimeter=parallelogramPerimeter;whiteSpace=wrap;html=1;fixedSize=1;flipH=1;rotation=-90;" vertex="1" parent="dZNwG31AfP6tHt8ibSog-70">
          <mxGeometry x="101" y="288" width="56" height="29" as="geometry" />
        </mxCell>
        <mxCell id="dZNwG31AfP6tHt8ibSog-110" value="" style="shape=parallelogram;perimeter=parallelogramPerimeter;whiteSpace=wrap;html=1;fixedSize=1;flipH=1;rotation=-90;" vertex="1" parent="dZNwG31AfP6tHt8ibSog-70">
          <mxGeometry x="101" y="323.5" width="56" height="29" as="geometry" />
        </mxCell>
        <mxCell id="dZNwG31AfP6tHt8ibSog-111" value="" style="shape=parallelogram;perimeter=parallelogramPerimeter;whiteSpace=wrap;html=1;fixedSize=1;flipH=1;rotation=-90;" vertex="1" parent="dZNwG31AfP6tHt8ibSog-70">
          <mxGeometry x="129.5" y="54" width="56" height="29" as="geometry" />
        </mxCell>
        <mxCell id="dZNwG31AfP6tHt8ibSog-112" value="" style="shape=parallelogram;perimeter=parallelogramPerimeter;whiteSpace=wrap;html=1;fixedSize=1;flipH=1;rotation=-90;" vertex="1" parent="dZNwG31AfP6tHt8ibSog-70">
          <mxGeometry x="129.5" y="89.5" width="56" height="29" as="geometry" />
        </mxCell>
        <mxCell id="dZNwG31AfP6tHt8ibSog-113" value="" style="shape=parallelogram;perimeter=parallelogramPerimeter;whiteSpace=wrap;html=1;fixedSize=1;flipH=1;rotation=-90;" vertex="1" parent="dZNwG31AfP6tHt8ibSog-70">
          <mxGeometry x="129.5" y="125.5" width="56" height="29" as="geometry" />
        </mxCell>
        <mxCell id="dZNwG31AfP6tHt8ibSog-114" value="" style="shape=parallelogram;perimeter=parallelogramPerimeter;whiteSpace=wrap;html=1;fixedSize=1;flipH=1;rotation=-90;" vertex="1" parent="dZNwG31AfP6tHt8ibSog-70">
          <mxGeometry x="129.5" y="161" width="56" height="29" as="geometry" />
        </mxCell>
        <mxCell id="dZNwG31AfP6tHt8ibSog-115" value="" style="shape=parallelogram;perimeter=parallelogramPerimeter;whiteSpace=wrap;html=1;fixedSize=1;flipH=1;rotation=-90;" vertex="1" parent="dZNwG31AfP6tHt8ibSog-70">
          <mxGeometry x="129.5" y="196.5" width="56" height="29" as="geometry" />
        </mxCell>
        <mxCell id="dZNwG31AfP6tHt8ibSog-116" value="" style="shape=parallelogram;perimeter=parallelogramPerimeter;whiteSpace=wrap;html=1;fixedSize=1;flipH=1;rotation=-90;" vertex="1" parent="dZNwG31AfP6tHt8ibSog-70">
          <mxGeometry x="129.5" y="232" width="56" height="29" as="geometry" />
        </mxCell>
        <mxCell id="dZNwG31AfP6tHt8ibSog-117" value="" style="shape=parallelogram;perimeter=parallelogramPerimeter;whiteSpace=wrap;html=1;fixedSize=1;flipH=1;rotation=-90;" vertex="1" parent="dZNwG31AfP6tHt8ibSog-70">
          <mxGeometry x="129.5" y="268" width="56" height="29" as="geometry" />
        </mxCell>
        <mxCell id="dZNwG31AfP6tHt8ibSog-118" value="" style="shape=parallelogram;perimeter=parallelogramPerimeter;whiteSpace=wrap;html=1;fixedSize=1;flipH=1;rotation=-90;" vertex="1" parent="dZNwG31AfP6tHt8ibSog-70">
          <mxGeometry x="129.5" y="303.5" width="56" height="29" as="geometry" />
        </mxCell>
        <mxCell id="dZNwG31AfP6tHt8ibSog-119" value="" style="shape=parallelogram;perimeter=parallelogramPerimeter;whiteSpace=wrap;html=1;fixedSize=1;flipH=1;rotation=-90;" vertex="1" parent="dZNwG31AfP6tHt8ibSog-70">
          <mxGeometry x="158.5" y="33.5" width="56" height="29" as="geometry" />
        </mxCell>
        <mxCell id="dZNwG31AfP6tHt8ibSog-120" value="" style="shape=parallelogram;perimeter=parallelogramPerimeter;whiteSpace=wrap;html=1;fixedSize=1;flipH=1;rotation=-90;" vertex="1" parent="dZNwG31AfP6tHt8ibSog-70">
          <mxGeometry x="158.5" y="69" width="56" height="29" as="geometry" />
        </mxCell>
        <mxCell id="dZNwG31AfP6tHt8ibSog-121" value="" style="shape=parallelogram;perimeter=parallelogramPerimeter;whiteSpace=wrap;html=1;fixedSize=1;flipH=1;rotation=-90;" vertex="1" parent="dZNwG31AfP6tHt8ibSog-70">
          <mxGeometry x="158.5" y="105" width="56" height="29" as="geometry" />
        </mxCell>
        <mxCell id="dZNwG31AfP6tHt8ibSog-122" value="" style="shape=parallelogram;perimeter=parallelogramPerimeter;whiteSpace=wrap;html=1;fixedSize=1;flipH=1;rotation=-90;" vertex="1" parent="dZNwG31AfP6tHt8ibSog-70">
          <mxGeometry x="158.5" y="140.5" width="56" height="29" as="geometry" />
        </mxCell>
        <mxCell id="dZNwG31AfP6tHt8ibSog-123" value="" style="shape=parallelogram;perimeter=parallelogramPerimeter;whiteSpace=wrap;html=1;fixedSize=1;flipH=1;rotation=-90;" vertex="1" parent="dZNwG31AfP6tHt8ibSog-70">
          <mxGeometry x="158.5" y="176" width="56" height="29" as="geometry" />
        </mxCell>
        <mxCell id="dZNwG31AfP6tHt8ibSog-124" value="" style="shape=parallelogram;perimeter=parallelogramPerimeter;whiteSpace=wrap;html=1;fixedSize=1;flipH=1;rotation=-90;" vertex="1" parent="dZNwG31AfP6tHt8ibSog-70">
          <mxGeometry x="158.5" y="211.5" width="56" height="29" as="geometry" />
        </mxCell>
        <mxCell id="dZNwG31AfP6tHt8ibSog-125" value="" style="shape=parallelogram;perimeter=parallelogramPerimeter;whiteSpace=wrap;html=1;fixedSize=1;flipH=1;rotation=-90;" vertex="1" parent="dZNwG31AfP6tHt8ibSog-70">
          <mxGeometry x="158.5" y="247.5" width="56" height="29" as="geometry" />
        </mxCell>
        <mxCell id="dZNwG31AfP6tHt8ibSog-126" value="" style="shape=parallelogram;perimeter=parallelogramPerimeter;whiteSpace=wrap;html=1;fixedSize=1;flipH=1;rotation=-90;" vertex="1" parent="dZNwG31AfP6tHt8ibSog-70">
          <mxGeometry x="158.5" y="283" width="56" height="29" as="geometry" />
        </mxCell>
        <mxCell id="dZNwG31AfP6tHt8ibSog-127" value="" style="shape=parallelogram;perimeter=parallelogramPerimeter;whiteSpace=wrap;html=1;fixedSize=1;flipH=1;rotation=-90;" vertex="1" parent="dZNwG31AfP6tHt8ibSog-70">
          <mxGeometry x="187" y="13.5" width="56" height="29" as="geometry" />
        </mxCell>
        <mxCell id="dZNwG31AfP6tHt8ibSog-128" value="" style="shape=parallelogram;perimeter=parallelogramPerimeter;whiteSpace=wrap;html=1;fixedSize=1;flipH=1;rotation=-90;" vertex="1" parent="dZNwG31AfP6tHt8ibSog-70">
          <mxGeometry x="187" y="49" width="56" height="29" as="geometry" />
        </mxCell>
        <mxCell id="dZNwG31AfP6tHt8ibSog-129" value="" style="shape=parallelogram;perimeter=parallelogramPerimeter;whiteSpace=wrap;html=1;fixedSize=1;flipH=1;rotation=-90;" vertex="1" parent="dZNwG31AfP6tHt8ibSog-70">
          <mxGeometry x="187" y="85" width="56" height="29" as="geometry" />
        </mxCell>
        <mxCell id="dZNwG31AfP6tHt8ibSog-130" value="" style="shape=parallelogram;perimeter=parallelogramPerimeter;whiteSpace=wrap;html=1;fixedSize=1;flipH=1;rotation=-90;" vertex="1" parent="dZNwG31AfP6tHt8ibSog-70">
          <mxGeometry x="187" y="120.5" width="56" height="29" as="geometry" />
        </mxCell>
        <mxCell id="dZNwG31AfP6tHt8ibSog-131" value="" style="shape=parallelogram;perimeter=parallelogramPerimeter;whiteSpace=wrap;html=1;fixedSize=1;flipH=1;rotation=-90;" vertex="1" parent="dZNwG31AfP6tHt8ibSog-70">
          <mxGeometry x="187" y="156" width="56" height="29" as="geometry" />
        </mxCell>
        <mxCell id="dZNwG31AfP6tHt8ibSog-132" value="" style="shape=parallelogram;perimeter=parallelogramPerimeter;whiteSpace=wrap;html=1;fixedSize=1;flipH=1;rotation=-90;" vertex="1" parent="dZNwG31AfP6tHt8ibSog-70">
          <mxGeometry x="187" y="191.5" width="56" height="29" as="geometry" />
        </mxCell>
        <mxCell id="dZNwG31AfP6tHt8ibSog-133" value="" style="shape=parallelogram;perimeter=parallelogramPerimeter;whiteSpace=wrap;html=1;fixedSize=1;flipH=1;rotation=-90;" vertex="1" parent="dZNwG31AfP6tHt8ibSog-70">
          <mxGeometry x="187" y="227.5" width="56" height="29" as="geometry" />
        </mxCell>
        <mxCell id="dZNwG31AfP6tHt8ibSog-134" value="" style="shape=parallelogram;perimeter=parallelogramPerimeter;whiteSpace=wrap;html=1;fixedSize=1;flipH=1;rotation=-90;" vertex="1" parent="dZNwG31AfP6tHt8ibSog-70">
          <mxGeometry x="187" y="263" width="56" height="29" as="geometry" />
        </mxCell>
        <mxCell id="dZNwG31AfP6tHt8ibSog-135" value="&lt;span style=&quot;font-size: 18px;&quot;&gt;Source&lt;/span&gt;" style="rounded=0;whiteSpace=wrap;html=1;fontStyle=1;fontSize=18;strokeColor=none;fillColor=none;" vertex="1" parent="dZNwG31AfP6tHt8ibSog-70">
          <mxGeometry x="38.5" width="120" height="40" as="geometry" />
        </mxCell>
        <mxCell id="dZNwG31AfP6tHt8ibSog-136" value="" style="endArrow=classic;html=1;rounded=0;strokeWidth=2;entryX=0;entryY=0.5;entryDx=0;entryDy=0;" edge="1" parent="1" source="dZNwG31AfP6tHt8ibSog-89" target="dZNwG31AfP6tHt8ibSog-138">
          <mxGeometry width="50" height="50" relative="1" as="geometry">
            <mxPoint x="713.25" y="400" as="sourcePoint" />
            <mxPoint x="763.25" y="350" as="targetPoint" />
          </mxGeometry>
        </mxCell>
        <mxCell id="dZNwG31AfP6tHt8ibSog-137" value="float x = width - dest.coord().x;" style="rounded=0;whiteSpace=wrap;html=1;fontStyle=1;fontSize=18;strokeColor=none;fillColor=none;" vertex="1" parent="1">
          <mxGeometry x="638.75" y="260" width="324.5" height="40" as="geometry" />
        </mxCell>
        <mxCell id="dZNwG31AfP6tHt8ibSog-138" value="f" style="ellipse;whiteSpace=wrap;html=1;fontStyle=3;fontSize=16;fontFamily=Georgia;fillColor=#999999;strokeColor=#314354;fontColor=#ffffff;" vertex="1" parent="1">
          <mxGeometry x="763.25" y="220" width="38.5" height="40" as="geometry" />
        </mxCell>
        <mxCell id="dZNwG31AfP6tHt8ibSog-139" value="" style="endArrow=classic;html=1;rounded=0;strokeWidth=2;exitX=1;exitY=0.5;exitDx=0;exitDy=0;entryX=0.75;entryY=1;entryDx=0;entryDy=0;strokeColor=#CC0000;" edge="1" parent="1" source="dZNwG31AfP6tHt8ibSog-138" target="dZNwG31AfP6tHt8ibSog-39">
          <mxGeometry width="50" height="50" relative="1" as="geometry">
            <mxPoint x="499.75" y="250" as="sourcePoint" />
            <mxPoint x="1030.75" y="250" as="targetPoint" />
          </mxGeometry>
        </mxCell>
        <mxCell id="dZNwG31AfP6tHt8ibSog-140" value="" style="endArrow=none;html=1;rounded=0;strokeWidth=3;" edge="1" parent="1">
          <mxGeometry width="50" height="50" relative="1" as="geometry">
            <mxPoint x="517.75" y="450" as="sourcePoint" />
            <mxPoint x="517.75" y="90" as="targetPoint" />
          </mxGeometry>
        </mxCell>
        <mxCell id="dZNwG31AfP6tHt8ibSog-141" value="" style="endArrow=none;html=1;rounded=0;strokeWidth=3;" edge="1" parent="1">
          <mxGeometry width="50" height="50" relative="1" as="geometry">
            <mxPoint x="1077.5" y="451" as="sourcePoint" />
            <mxPoint x="1077.5" y="91" as="targetPoint" />
          </mxGeometry>
        </mxCell>
        <mxCell id="dZNwG31AfP6tHt8ibSog-142" value="" style="endArrow=classic;html=1;rounded=0;strokeWidth=1;exitX=1;exitY=0.5;exitDx=0;exitDy=0;entryX=0.416;entryY=0.042;entryDx=0;entryDy=0;strokeColor=#000000;entryPerimeter=0;dashed=1;" edge="1" parent="1" source="dZNwG31AfP6tHt8ibSog-138" target="dZNwG31AfP6tHt8ibSog-23">
          <mxGeometry width="50" height="50" relative="1" as="geometry">
            <mxPoint x="811.75" y="250" as="sourcePoint" />
            <mxPoint x="1116.75" y="196" as="targetPoint" />
          </mxGeometry>
        </mxCell>
      </root>
    </mxGraphModel>
  </diagram>
</mxfile>
